<svg id="Layer_1" data-name="Layer 1" xmlns="http://www.w3.org/2000/svg" viewBox="0 0 40 40"><defs><style>.cls-1{fill:#0069ff;}</style></defs><g id="Group"><g id="Group_2" data-name="Group 2"><path id="Vector" class="cls-1" d="M28.91,14.88a.86.86,0,0,1-.86-.86V6.71H23.31L21,12.32a.86.86,0,0,1-1.58-.66L22,5.53A.86.86,0,0,1,22.74,5h6.17a.86.86,0,0,1,.86.86V14A.86.86,0,0,1,28.91,14.88Z"/></g><g id="Group_3" data-name="Group 3"><path id="Vector_2" data-name="Vector 2" class="cls-1" d="M5.17,19.85a.84.84,0,0,1-.83-.67l-2-9a.83.83,0,0,1,.3-.86.86.86,0,0,1,.91-.09l7.85,4a.86.86,0,1,1-.77,1.53L4.4,11.61,6,18.81a.86.86,0,0,1-.65,1A.55.55,0,0,1,5.17,19.85Z"/></g><g id="Group_4" data-name="Group 4"><path id="Vector_3" data-name="Vector 3" class="cls-1" d="M3.16,34a.82.82,0,0,1-.52-.18A.84.84,0,0,1,2.33,33l2.21-9.52a.86.86,0,1,1,1.67.39l-1.78,7.7,6.49-3.42a.86.86,0,1,1,.8,1.52L3.56,33.9A.91.91,0,0,1,3.16,34Z"/></g><g id="Group_5" data-name="Group 5"><path id="Vector_4" data-name="Vector 4" class="cls-1" d="M28.75,30.91H15.19a5.49,5.49,0,0,1-3.31-1.11l-9.57-8A.83.83,0,0,1,2,21.12a.88.88,0,0,1,.29-.65L11.7,12.3a5.53,5.53,0,0,1,3.49-1.13H28.6a10.05,10.05,0,0,1,9.95,10A9.81,9.81,0,0,1,28.75,30.91ZM4.17,21.1,13,28.47a3.73,3.73,0,0,0,2.22.72H28.74a8.09,8.09,0,0,0,8.08-8.08,8.34,8.34,0,0,0-8.26-8.24H15.18a3.85,3.85,0,0,0-2.39.74Z"/></g><g id="Group_6" data-name="Group 6"><path id="Vector_5" data-name="Vector 5" class="cls-1" d="M29.76,12.79H28.05v16.8h1.71Z"/></g><g id="Group_7" data-name="Group 7"><path id="Vector_6" data-name="Vector 6" class="cls-1" d="M13.49,24.59a.84.84,0,0,1-.62-.27.86.86,0,0,1,0-1.21l2.13-2-1.84-1.84A.86.86,0,0,1,14.4,18l2.47,2.47a.89.89,0,0,1,.25.62.84.84,0,0,1-.27.61l-2.77,2.62A.89.89,0,0,1,13.49,24.59Z"/></g><g id="Group_8" data-name="Group 8"><path id="Vector_7" data-name="Vector 7" class="cls-1" d="M22.89,24.59H20a.86.86,0,0,1,0-1.72h2.93a.86.86,0,0,1,0,1.72Z"/></g></g></svg>