<svg viewBox="0 0 126 25" version="1.1" xmlns="http://www.w3.org/2000/svg" xmlns:xlink="http://www.w3.org/1999/xlink" x="0px" y="0px">
    <g id="Page-1" stroke="none" stroke-width="1" fill="none" fill-rule="evenodd">
        <g id="jsCompleteLogo">
            <g id="keyboard" fill-rule="nonzero" fill="#992211">
                <path d="M31.8989371,0 L6.10095858,0 C2.73686204,0 0,2.20850168 0,4.92314815 L0,12.5 L0,20.076936 C0,22.7915825 2.73686204,25 6.10095858,25 L31.8989371,25 C35.2630336,25 38,22.7914983 38,20.076936 L38,12.5 L38,4.92314815 C38.0001043,2.20850168 35.2630336,0 31.8989371,0 Z M35.9138429,12.5 L35.9138429,20.076936 C35.9138429,21.8660774 34.1163201,23.3164983 31.8990414,23.3164983 L6.10095858,23.3164983 C3.88367995,23.3164983 2.08626142,21.8661616 2.08626142,20.076936 L2.08626142,12.5 L2.08626142,4.92314815 C2.08615711,3.13383838 3.88367995,1.68350168 6.10095858,1.68350168 L31.8989371,1.68350168 C34.1162157,1.68350168 35.9137386,3.13392256 35.9137386,4.92314815 L35.9137386,12.5 L35.9138429,12.5 Z" id="Shape"></path>
                <path d="M32.0490207,3 L5.95087376,3 C4.87523919,3 4,3.72611521 4,4.61867742 L4,12.5 L4,20.3814101 C4,21.2738848 4.87523919,22 5.95087376,22 L32.0490207,22 C33.1246553,22 34,21.2738848 34,20.3814101 L34,12.5 L34,4.61867742 C34.0001055,3.72611521 33.1247608,3 32.0490207,3 Z" id="Shape"></path>
            </g>
            <path d="M52.1056756,13.6836316 C52.1056756,14.8731761 51.6040849,15.9090556 50.6008884,16.7913012 C49.597692,17.6735467 48.2601168,18.1146628 46.5881228,18.1146628 C44.7065056,18.1146628 43.1380988,17.4988349 41.8828555,16.2671607 C40.6276122,15.0354865 40,13.3862573 40,11.3194237 C40,9.43102176 40.6400896,7.90570161 41.9202881,6.74341748 C43.2004865,5.58113335 44.8038299,5 46.7303663,5 C47.5439037,5 48.242637,5.13506084 48.8265872,5.40518658 C49.4105374,5.67531231 49.9271009,6.03836577 50.3762933,6.49435784 L50.3762933,5.72115776 C50.3762933,5.53281321 50.4449189,5.39651328 50.5821722,5.31225388 C50.7194254,5.22799447 50.8803836,5.1858654 51.0650516,5.1858654 C51.2297555,5.1858654 51.3757409,5.23418992 51.5030121,5.33084042 C51.6302833,5.42749091 51.6939179,5.56255175 51.6939179,5.736027 L51.6939179,8.51657342 C51.6939179,8.69004867 51.6302833,8.82510951 51.5030121,8.92176 C51.3757409,9.01841049 51.2297555,9.06673501 51.0650516,9.06673501 C50.8953567,9.06673501 50.7705829,9.00106323 50.6907265,8.86971769 C50.61087,8.73837215 50.5260239,8.61074585 50.4361854,8.48683496 C50.0718404,7.89206269 49.5964522,7.39642658 49.0100065,6.99991173 C48.4235608,6.60339689 47.6636884,6.40514245 46.7303663,6.40514245 C45.2530223,6.40514245 44.0901305,6.87723585 43.2416559,7.82143682 C42.3931813,8.76563778 41.9689503,9.95888174 41.9689503,11.4012045 C41.9689503,13.0269153 42.3831994,14.3093738 43.2117098,15.2486183 C44.0402203,16.1878628 45.2130941,16.6574781 46.7303663,16.6574781 C47.783473,16.6574781 48.6369258,16.3737264 49.2907504,15.8062145 C49.9445749,15.2387027 50.3638149,14.4840967 50.5484829,13.5423739 C50.5834201,13.3639422 50.6770005,13.2313596 50.8292268,13.144622 C50.9814531,13.0578843 51.1424113,13.0145162 51.3121062,13.0145162 C51.5067563,13.0145162 51.6876783,13.0715143 51.8548777,13.1855123 C52.0220771,13.2995104 52.1056756,13.4655485 52.1056756,13.6836316 Z M58.0873916,10.3603582 C57.1390964,10.3603582 56.4041787,10.6651744 55.8826164,11.274816 C55.3610541,11.8844576 55.1002768,12.6601281 55.1002768,13.6018508 C55.1002768,14.54853 55.3610541,15.3266787 55.8826164,15.9363203 C56.4041787,16.5459619 57.1390964,16.8507781 58.0873916,16.8507781 C59.0107316,16.8507781 59.7244377,16.5410055 60.2285315,15.9214511 C60.7326252,15.3018966 60.9846683,14.5287043 60.9846683,13.6018508 C60.9846683,12.6749974 60.7326252,11.9030441 60.2285315,11.2859679 C59.7244377,10.6688917 59.0107316,10.3603582 58.0873916,10.3603582 Z M58.0873916,18.1146628 C56.7048771,18.1146628 55.5844083,17.705763 54.7259517,16.8879512 C53.867495,16.0701393 53.4382731,14.9747835 53.4382731,13.6018508 C53.4382731,12.2239618 53.8687427,11.1286059 54.7296949,10.3157505 C55.5906471,9.5028951 56.7098681,9.09647348 58.0873916,9.09647348 C59.4449509,9.09647348 60.5429604,9.50909055 61.3814529,10.3343371 C62.2199455,11.1595836 62.6391855,12.2487439 62.6391855,13.6018508 C62.6391855,14.9549577 62.2199455,16.0453572 61.3814529,16.8730819 C60.5429604,17.7008067 59.4449509,18.1146628 58.0873916,18.1146628 Z M77.0432175,9.09647348 C77.9615665,9.09647348 78.7251822,9.37155152 79.3340875,9.92171587 C79.9429928,10.4718802 80.2474408,11.2078998 80.2474408,12.1297969 L80.2474408,16.620305 L81.3404703,16.620305 C81.5301293,16.620305 81.6661328,16.688455 81.7484847,16.8247569 C81.8308367,16.9610589 81.872012,17.1209016 81.872012,17.3042897 C81.872012,17.467852 81.824598,17.6128256 81.7297685,17.7392147 C81.6349389,17.8656038 81.5001832,17.9287974 81.3254973,17.9287974 L77.6720838,17.9287974 C77.4624606,17.9287974 77.3077411,17.8693211 77.2079206,17.7503666 C77.1081,17.6314122 77.0581905,17.477765 77.0581905,17.2894204 C77.0581905,17.1060323 77.1043568,16.9486679 77.1966908,16.8173223 C77.2890248,16.6859768 77.4325147,16.620305 77.6271647,16.620305 L78.7351672,16.620305 L78.7351672,12.2636199 C78.7351672,11.6738041 78.5841909,11.2091453 78.2822338,10.8696294 C77.9802766,10.5301136 77.5273477,10.3603582 76.9234334,10.3603582 C76.1198781,10.3603582 75.4436041,10.5734817 74.8945911,10.9997352 C74.3455781,11.4259887 73.9188517,11.9191466 73.6143991,12.4792238 L73.6143991,16.620305 L74.8496721,16.620305 C75.0393311,16.620305 75.1765823,16.688455 75.2614298,16.8247569 C75.3462772,16.9610589 75.3887003,17.1209016 75.3887003,17.3042897 C75.3887003,17.467852 75.3400385,17.6128256 75.2427135,17.7392147 C75.1453885,17.8656038 75.009385,17.9287974 74.8346991,17.9287974 L70.8818254,17.9287974 C70.6722023,17.9287974 70.5174828,17.8693211 70.4176622,17.7503666 C70.3178417,17.6314122 70.2679322,17.477765 70.2679322,17.2894204 C70.2679322,17.1060323 70.3140985,16.9486679 70.4064325,16.8173223 C70.4987665,16.6859768 70.6422563,16.620305 70.8369064,16.620305 L72.0946389,16.620305 L72.0946389,12.2636199 C72.0946389,11.6738041 71.9436626,11.2091453 71.6417055,10.8696294 C71.3397484,10.5301136 70.8868194,10.3603582 70.2829052,10.3603582 C69.4394216,10.3603582 68.7294587,10.5586127 68.152995,10.9551275 C67.5765314,11.3516423 67.1460618,11.8348876 66.8615732,12.4048776 L66.8615732,16.620305 L68.2465763,16.620305 C68.4362353,16.620305 68.5722388,16.688455 68.6545907,16.8247569 C68.7369427,16.9610589 68.778118,17.1209016 68.778118,17.3042897 C68.778118,17.467852 68.730704,17.6128256 68.6358745,17.7392147 C68.541045,17.8656038 68.4062893,17.9287974 68.2316033,17.9287974 L64.2712432,17.9287974 C64.06162,17.9287974 63.9069005,17.8693211 63.80708,17.7503666 C63.7072594,17.6314122 63.6573499,17.477765 63.6573499,17.2894204 C63.6573499,17.1060323 63.7035162,16.9486679 63.7958502,16.8173223 C63.8881842,16.6859768 64.0316741,16.620305 64.2263241,16.620305 L65.3343266,16.620305 L65.3343266,10.6503082 L64.2562701,10.9105198 C64.2462881,10.9154762 64.232563,10.9191935 64.2150944,10.9216717 C64.1976258,10.92415 64.1764142,10.925389 64.1514591,10.925389 C64.0017283,10.925389 63.8619816,10.8646736 63.7322149,10.7432409 C63.6024482,10.6218083 63.5375658,10.4842693 63.5375658,10.3306198 C63.5375658,10.1621009 63.5737503,10.0270401 63.6461201,9.92543318 C63.71849,9.82382625 63.8245478,9.75071992 63.9642965,9.706112 L66.0530309,9.11134271 C66.072995,9.11134271 66.0854724,9.10886453 66.0904634,9.10390809 C66.0954544,9.09895166 66.1079318,9.09647348 66.1278959,9.09647348 L66.1728149,9.09647348 C66.2776265,9.09647348 66.3674637,9.12745074 66.4423291,9.18940618 C66.5171945,9.25136162 66.5546266,9.33685885 66.5546266,9.44590044 L66.7118432,10.8510429 C67.0113048,10.3504429 67.5016658,9.93286946 68.182941,9.59831007 C68.8642162,9.26375067 69.6066204,9.09647348 70.4101757,9.09647348 C71.1638208,9.09647348 71.8001672,9.2724243 72.319234,9.62433122 C72.8383008,9.97623815 73.2026403,10.4297452 73.4122635,10.984866 C73.7566443,10.4892224 74.2382712,10.0505845 74.8571586,9.66893892 C75.4760459,9.28729338 76.204725,9.09647348 77.0432175,9.09647348 Z M90.9980593,13.6018508 C90.9980593,12.7245618 90.7772097,11.9649994 90.3355038,11.323141 C89.8937979,10.6812826 89.2412309,10.3603582 88.3777832,10.3603582 C87.7189677,10.3603582 87.1512469,10.4842672 86.6746038,10.732089 C86.1979607,10.9799108 85.8099142,11.2971179 85.5104525,11.6837199 L85.5104525,15.8248011 C85.8248872,16.1370565 86.2179247,16.3861136 86.6895768,16.57198 C87.1612288,16.7578463 87.7089858,16.8507781 88.3328642,16.8507781 C89.206294,16.8507781 89.8688429,16.5273755 90.3205308,15.8805607 C90.7722187,15.2337458 90.9980593,14.4741835 90.9980593,13.6018508 Z M92.6525765,13.6018508 C92.6525765,14.9202627 92.2607868,16.0019885 91.4771955,16.8470608 C90.6936043,17.692133 89.6455043,18.1146628 88.3328642,18.1146628 C87.7189679,18.1146628 87.1836883,18.0229701 86.7270093,17.839582 C86.2703303,17.6561939 85.8648155,17.4158104 85.5104525,17.1184243 L85.5104525,20.8952093 L87.0227262,20.8952093 C87.2123852,20.8952093 87.3496364,20.9645983 87.4344838,21.1033785 C87.5193313,21.2421587 87.5617544,21.4032404 87.5617544,21.5866286 C87.5617544,21.7501909 87.5130926,21.8939254 87.4157676,22.0178363 C87.3184426,22.1417472 87.1824391,22.2037017 87.0077532,22.2037017 L83.0848255,22.2037017 C82.8752024,22.2037017 82.7204829,22.1442254 82.6206623,22.0252709 C82.5208418,21.9063164 82.4709323,21.7526693 82.4709323,21.5643247 C82.4709323,21.3809366 82.5170986,21.2235721 82.6094326,21.0922266 C82.7017666,20.960881 82.8452565,20.8952093 83.0399065,20.8952093 L83.9757194,20.8952093 L83.9757194,10.6503082 L82.9051494,10.9105198 C82.8951674,10.9154762 82.8801945,10.9191935 82.8602304,10.9216717 C82.8402663,10.92415 82.817807,10.925389 82.7928519,10.925389 C82.6431211,10.925389 82.5033744,10.8646736 82.3736077,10.7432409 C82.243841,10.6218083 82.1789586,10.4842693 82.1789586,10.3306198 C82.1789586,10.1621009 82.2163908,10.0270401 82.2912562,9.92543318 C82.3661216,9.82382625 82.4734271,9.75071992 82.6131758,9.706112 L84.6944237,9.11134271 C84.7143878,9.11134271 84.7268652,9.10886453 84.7318562,9.10390809 C84.7368472,9.09895166 84.7493246,9.09647348 84.7692887,9.09647348 L84.8216943,9.09647348 C84.9265058,9.09647348 85.016343,9.12745074 85.0912084,9.18940618 C85.1660738,9.25136162 85.2035059,9.33685885 85.2035059,9.44590044 L85.353236,10.8510429 C85.5928053,10.3454865 85.9920814,9.92667394 86.5510765,9.59459276 C87.1100715,9.26251158 87.7539043,9.09647348 88.4825943,9.09647348 C89.7902434,9.09647348 90.8121408,9.52148145 91.5483173,10.3715101 C92.2844938,11.2215388 92.6525765,12.2983083 92.6525765,13.6018508 Z M97.0471539,5.02973846 C97.1519654,5.02973846 97.244298,5.0631939 97.3241545,5.13010578 C97.4040109,5.19701766 97.4439385,5.28499307 97.4439385,5.39403465 L97.4439385,16.620305 L99.2706453,16.620305 C99.4603043,16.620305 99.5975555,16.688455 99.682403,16.8247569 C99.7672504,16.9610589 99.8096735,17.1209016 99.8096735,17.3042897 C99.8096735,17.467852 99.7610117,17.6128256 99.6636867,17.7392147 C99.5663617,17.8656038 99.4303582,17.9287974 99.2556723,17.9287974 L94.2546882,17.9287974 C94.0450651,17.9287974 93.8903455,17.8693211 93.790525,17.7503666 C93.6907045,17.6314122 93.6407949,17.477765 93.6407949,17.2894204 C93.6407949,17.1060323 93.6869612,16.9486679 93.7792952,16.8173223 C93.8716292,16.6859768 94.0151191,16.620305 94.2097692,16.620305 L95.9092054,16.620305 L95.9092054,6.62818093 L94.1498772,7.08912713 C94.129913,7.08912713 94.1174357,7.09160531 94.1124446,7.09656174 C94.1074536,7.10151818 94.0949762,7.10399636 94.0750121,7.10399636 C93.9202903,7.10399636 93.7817914,7.03584639 93.6595112,6.89954442 C93.537231,6.76324244 93.4760919,6.61826888 93.4760919,6.46461937 C93.4760919,6.25149265 93.5322401,6.11147544 93.6445382,6.04456356 C93.7568363,5.97765168 93.8953352,5.91941444 94.0600391,5.86985009 L96.9423428,5.0446077 C96.9523249,5.03965126 96.96605,5.03593399 96.9835186,5.03345577 C97.0009872,5.03097755 97.0221987,5.02973846 97.0471539,5.02973846 Z M102.137976,13.772847 C102.137976,14.7443084 102.443672,15.4840453 103.055073,15.9920799 C103.666473,16.5001146 104.418859,16.7541281 105.312253,16.7541281 C105.946114,16.7541281 106.443961,16.6364145 106.805811,16.4009838 C107.16766,16.1655531 107.513284,15.8966705 107.842691,15.594328 C107.917557,15.5298943 107.997412,15.4815698 108.082259,15.4493529 C108.167107,15.4171361 108.251953,15.4010279 108.336801,15.4010279 C108.536442,15.4010279 108.706134,15.4617434 108.845883,15.583176 C108.985632,15.7046087 109.055505,15.8669295 109.055505,16.0701434 C109.055505,16.7045671 108.592594,17.2039205 107.666759,17.5682185 C106.740923,17.9325166 105.936132,18.1146628 105.252361,18.1146628 C103.88482,18.1146628 102.758112,17.7119585 101.872205,16.9065377 C100.986298,16.1011169 100.543351,15.0169129 100.543351,13.6538932 C100.543351,12.3057427 100.950113,11.2091478 101.763651,10.3640755 C102.577188,9.51900327 103.680189,9.09647348 105.072685,9.09647348 C106.070891,9.09647348 106.981739,9.43970149 107.805259,10.1261678 C108.628778,10.8126341 109.040532,11.6985837 109.040532,12.7840431 C109.040532,13.1557757 108.924492,13.378812 108.692409,13.4531585 C108.460327,13.5275051 108.167108,13.582025 107.812745,13.6167201 L102.137976,13.772847 Z M107.16142,12.3082276 C107.16142,11.5994574 106.943065,11.0976258 106.506351,10.8027179 C106.069636,10.50781 105.591752,10.3603582 105.072685,10.3603582 C104.194264,10.3603582 103.496779,10.5759599 102.980208,11.0071698 C102.463636,11.4383797 102.172913,12.0108394 102.10803,12.7245661 L106.607418,12.6279161 C106.747167,12.6229597 106.874436,12.5969388 106.98923,12.5498527 C107.104024,12.5027665 107.16142,12.4222257 107.16142,12.3082276 Z M114.063975,16.9325589 C114.543114,16.9325589 114.852553,16.7987371 114.992302,16.5310896 C115.132051,16.2634421 115.344166,16.1296203 115.628655,16.1296203 C115.783376,16.1296203 115.911893,16.1853794 116.01421,16.2968992 C116.116526,16.408419 116.167683,16.5410016 116.167683,16.6946511 C116.167683,17.1357739 115.900667,17.4851974 115.366627,17.742932 C114.832587,18.0006667 114.313528,18.1295321 113.809434,18.1295321 C113.225484,18.1295321 112.713912,17.9250822 112.274701,17.5161762 C111.835491,17.1072703 111.615889,16.6302205 111.615889,16.0850126 L111.615889,10.8213044 L110.492913,10.8213044 C110.28329,10.8213044 110.128571,10.7618281 110.02875,10.6428736 C109.92893,10.5239192 109.87902,10.370272 109.87902,10.1819274 C109.87902,9.99853932 109.925187,9.83993576 110.017521,9.706112 C110.109855,9.57228824 110.253344,9.50537737 110.447994,9.50537737 L111.615889,9.50537737 C111.615889,9.05434173 111.655817,8.45214385 111.735673,7.69876565 C111.815529,6.94538745 112.070068,6.568704 112.499296,6.568704 C112.624072,6.568704 112.732625,6.58357308 112.824959,6.6133117 C112.917293,6.64305031 113.008378,6.69013574 113.098217,6.7545694 L113.098217,6.90326173 C113.098217,6.96769539 113.100712,7.04080171 113.105703,7.1225829 C113.110694,7.20436409 113.11319,7.27747041 113.11319,7.34190408 L113.11319,9.50537737 L115.074653,9.50537737 C115.264312,9.50537737 115.401564,9.57476642 115.486411,9.71354662 C115.571259,9.85232681 115.613682,10.0134085 115.613682,10.1967967 C115.613682,10.360359 115.56502,10.5053326 115.467695,10.6317217 C115.37037,10.7581108 115.234366,10.8213044 115.05968,10.8213044 L113.11319,10.8213044 L113.11319,15.8545395 C113.11319,16.2411415 113.203027,16.5174586 113.382704,16.6834992 C113.562381,16.8495398 113.789469,16.9325589 114.063975,16.9325589 Z M118.563364,13.772847 C118.563364,14.7443084 118.86906,15.4840453 119.480461,15.9920799 C120.091861,16.5001146 120.844247,16.7541281 121.737641,16.7541281 C122.371502,16.7541281 122.869349,16.6364145 123.231199,16.4009838 C123.593048,16.1655531 123.938671,15.8966705 124.268079,15.594328 C124.342945,15.5298943 124.4228,15.4815698 124.507647,15.4493529 C124.592495,15.4171361 124.677341,15.4010279 124.762188,15.4010279 C124.96183,15.4010279 125.131522,15.4617434 125.271271,15.583176 C125.411019,15.7046087 125.480893,15.8669295 125.480893,16.0701434 C125.480893,16.7045671 125.017982,17.2039205 124.092146,17.5682185 C123.166311,17.9325166 122.36152,18.1146628 121.677749,18.1146628 C120.310208,18.1146628 119.1835,17.7119585 118.297593,16.9065377 C117.411686,16.1011169 116.968739,15.0169129 116.968739,13.6538932 C116.968739,12.3057427 117.375501,11.2091478 118.189039,10.3640755 C119.002576,9.51900327 120.105577,9.09647348 121.498073,9.09647348 C122.496279,9.09647348 123.407127,9.43970149 124.230647,10.1261678 C125.054166,10.8126341 125.46592,11.6985837 125.46592,12.7840431 C125.46592,13.1557757 125.34988,13.378812 125.117797,13.4531585 C124.885715,13.5275051 124.592496,13.582025 124.238133,13.6167201 L118.563364,13.772847 Z M123.586807,12.3082276 C123.586807,11.5994574 123.368453,11.0976258 122.931738,10.8027179 C122.495024,10.50781 122.01714,10.3603582 121.498073,10.3603582 C120.619652,10.3603582 119.922167,10.5759599 119.405595,11.0071698 C118.889024,11.4383797 118.598301,12.0108394 118.533418,12.7245661 L123.032806,12.6279161 C123.172555,12.6229597 123.299824,12.5969388 123.414618,12.5498527 C123.529412,12.5027665 123.586807,12.4222257 123.586807,12.3082276 Z" id="Complete" fill="#992211"></path>
            <path d="M14.7191014,8.70607085 L21.1734745,8.70607085 L21.1734745,16.8032209 C21.1734745,18.1498253 20.8226968,19.2095285 20.121131,19.9823623 C19.4195652,20.7551961 18.3672323,21.1416072 16.9641007,21.1416072 C16.3911553,21.1416072 15.8474499,21.0537865 15.3329684,20.8781424 C14.8184868,20.7024984 14.3741684,20.444891 14,20.1053125 L15.0172653,18.4191381 C15.1458857,18.5245245 15.3768143,18.6562556 15.7100581,18.8143352 C16.0433018,18.9724148 16.4203878,19.0514535 16.8413273,19.0514535 C17.1219536,19.0514535 17.38796,19.0075431 17.6393544,18.9197211 C17.8907488,18.8318991 18.1099848,18.6855312 18.2970691,18.4806132 C18.4841533,18.2756951 18.6303106,18.0093057 18.7355455,17.6814368 C18.8407804,17.3535679 18.893397,16.9437379 18.893397,16.4519346 L18.893397,10.6381457 L14.7191014,10.6381457 L14.7191014,8.70607085 Z M17.5779677,6.31732376 C17.5779677,5.95432607 17.7124325,5.64402624 17.981366,5.38641497 C18.2502996,5.1288037 18.6244624,5 19.1038657,5 C19.5949618,5 19.9866635,5.1288037 20.2789825,5.38641497 C20.5713016,5.64402624 20.717459,5.95432607 20.717459,6.31732376 C20.717459,6.69203106 20.5713016,6.99940353 20.2789825,7.2394504 C19.9866635,7.47949726 19.5949618,7.59951889 19.1038657,7.59951889 C18.6244624,7.59951889 18.2502996,7.47949726 17.981366,7.2394504 C17.7124325,6.99940353 17.5779677,6.69203106 17.5779677,6.31732376 Z M30.6445654,15.0643536 C30.6445654,14.8301615 30.5013312,14.6428107 30.2148585,14.5022954 C29.9283858,14.3617802 29.5746851,14.2329765 29.1537456,14.1158804 C28.7328061,13.9987844 28.2709489,13.8787628 27.76816,13.7558119 C27.2653712,13.6328611 26.803514,13.4630744 26.3825745,13.2464468 C25.961635,13.0298191 25.6079342,12.7546476 25.3214615,12.4209239 C25.0349888,12.0872002 24.8917546,11.6568787 24.8917546,11.1299466 C24.8917546,10.6966913 24.9882185,10.3161349 25.1811491,9.98826598 C25.3740797,9.6603971 25.6371629,9.38229819 25.9704067,9.15396093 C26.3036504,8.92562367 26.7011984,8.75290962 27.1630626,8.63581359 C27.6249267,8.51871756 28.1247848,8.46017042 28.662652,8.46017042 C29.2355974,8.46017042 29.7383787,8.50115341 30.1710109,8.58312064 C30.6036431,8.66508786 30.9807291,8.76461799 31.3022801,8.88171402 C31.6238311,8.99881005 31.8986069,9.13054111 32.1266158,9.27691115 C32.3546247,9.42328119 32.5504755,9.55501225 32.7141742,9.67210828 L31.7495261,11.2353325 C31.5741346,11.1299461 31.3724375,11.0216338 31.1444286,10.9103926 C30.9164197,10.7991514 30.6767216,10.6966939 30.4253272,10.6030171 C30.1739328,10.5093402 29.9108496,10.433229 29.6360696,10.374681 C29.3612897,10.3161329 29.089437,10.2868594 28.8205035,10.2868594 C28.3294074,10.2868594 27.9318594,10.3512612 27.6278476,10.4800669 C27.3238357,10.6088725 27.1718321,10.8079328 27.1718321,11.0772536 C27.1718321,11.2880265 27.3150663,11.4578132 27.601539,11.5866188 C27.8880117,11.7154245 28.2417125,11.8354461 28.662652,11.9466873 C29.0835914,12.0579285 29.5454487,12.1779502 30.0482375,12.3067558 C30.5510263,12.4355614 31.0128835,12.6024208 31.433823,12.8073388 C31.8547625,13.0122569 32.2084633,13.2786464 32.494936,13.6065153 C32.7814087,13.9343841 32.9246429,14.3559235 32.9246429,14.8711461 C32.9246429,15.7610759 32.6001736,16.4607142 31.9512252,16.9700819 C31.3022769,17.4794497 30.3405615,17.7341297 29.0660503,17.7341297 C28.0604726,17.7341297 27.192298,17.5848345 26.4615003,17.2862396 C25.7307026,16.9876448 25.14315,16.6392893 24.698825,16.2411628 L25.7511684,14.590117 C25.9031744,14.7189226 26.1048715,14.8623631 26.3562659,15.0204428 C26.6076603,15.1785224 26.8912056,15.3219629 27.2069102,15.4507685 C27.5226148,15.5795742 27.8587767,15.6878864 28.215406,15.7757084 C28.5720353,15.8635304 28.9257361,15.9074408 29.276519,15.9074408 C29.6506874,15.9074408 29.9722336,15.8430389 30.2411671,15.7142333 C30.5101007,15.5854276 30.6445654,15.3688032 30.6445654,15.0643536 Z" id="js" fill="#FFFFFF"></path>
        </g>
    </g>
</svg>