<svg xmlns="http://www.w3.org/2000/svg" xmlns:xlink="http://www.w3.org/1999/xlink" width="467" height="108" viewBox="0 0 467 108">
  <defs>
    <clipPath id="clip-TechAffinity_Logo">
      <rect width="467" height="108"/>
    </clipPath>
  </defs>
  <g id="TechAffinity_Logo" data-name="TechAffinity Logo" clip-path="url(#clip-TechAffinity_Logo)">
    <g id="Group_1106" data-name="Group 1106" transform="translate(-5.57 -12.91)">
      <g id="Group_2" data-name="Group 2" transform="translate(6.57 14.92)">
        <g id="Logo_-_1_1_">
          <g id="XMLID_41_" transform="translate(103.53 33.712)">
            <g id="XMLID_471_">
              <g id="XMLID_520_">
                <g id="XMLID_521_">
                  <path id="XMLID_522_" d="M337.911,126.937h1.616V114.073a3.381,3.381,0,0,1,1.056-2.517,3.449,3.449,0,0,1,2.548-1.056,3.607,3.607,0,0,1,3.573,3.573v12.864h4.288a3.267,3.267,0,0,1,2.486,1.056,3.64,3.64,0,0,1,0,5.065,3.431,3.431,0,0,1-2.486,1.056H346.7V151.3c0,4.536,2.268,6.8,6.836,6.8a3.267,3.267,0,0,1,2.486,1.056,3.422,3.422,0,0,1,1.025,2.517,3.492,3.492,0,0,1-1.025,2.548,3.431,3.431,0,0,1-2.486,1.056q-13.982,0-13.982-13.951V134.145h-1.616a3.362,3.362,0,0,1-2.486-1.056,3.52,3.52,0,0,1-1.056-2.548,3.381,3.381,0,0,1,1.056-2.517,3.327,3.327,0,0,1,2.459-1.087Z" transform="translate(-334.4 -110.5)" fill="#fff"/>
                </g>
              </g>
              <g id="XMLID_515_" transform="translate(23.707 16.468)">
                <g id="XMLID_516_">
                  <path id="XMLID_517_" d="M439.845,191a3.541,3.541,0,0,1,2.548.994,3.418,3.418,0,0,1,.994,2.548,3.615,3.615,0,0,1-1.025,2.579,19.419,19.419,0,1,1,6.62-14.481,3.354,3.354,0,0,1-1.056,2.548,3.515,3.515,0,0,1-2.548.994H418.313a11.926,11.926,0,0,0,1.709,3.449,12.672,12.672,0,0,0,2.641,2.672,13.236,13.236,0,0,0,3.356,1.74,12,12,0,0,0,11.434-2.113A3.736,3.736,0,0,1,439.845,191Zm1.554-11.931a11.271,11.271,0,0,0-1.74-3.449,12.815,12.815,0,0,0-2.672-2.672,13.236,13.236,0,0,0-3.356-1.74,12.151,12.151,0,0,0-10.968,1.74,11.482,11.482,0,0,0-2.672,2.672,11.126,11.126,0,0,0-1.678,3.449Z" transform="translate(-410.7 -163.5)" fill="#fff"/>
                </g>
              </g>
              <g id="XMLID_511_" transform="translate(65.654 16.468)">
                <g id="XMLID_512_">
                  <path id="XMLID_513_" d="M574.907,190.936a3.541,3.541,0,0,1,2.548.994,3.418,3.418,0,0,1,.994,2.548,3.645,3.645,0,0,1-1.119,2.641,18.336,18.336,0,0,1-12.491,4.661,19.14,19.14,0,0,1,0-38.28,18.225,18.225,0,0,1,12.491,4.661,3.483,3.483,0,0,1,1.243,2.7,3.614,3.614,0,0,1-.994,2.579,3.443,3.443,0,0,1-2.548,1.025,3.725,3.725,0,0,1-2.33-.808,13.369,13.369,0,0,0-3.666-2.237,11.394,11.394,0,0,0-4.164-.746,11.82,11.82,0,0,0-4.692.932,12.094,12.094,0,0,0-6.4,6.4,12.274,12.274,0,0,0,0,9.384,12.022,12.022,0,0,0,2.579,3.822,12.554,12.554,0,0,0,3.822,2.579,11.821,11.821,0,0,0,4.692.932,11.4,11.4,0,0,0,4.164-.746,12.4,12.4,0,0,0,3.635-2.206,3.379,3.379,0,0,1,2.236-.835Z" transform="translate(-545.7 -163.5)" fill="#fff"/>
                </g>
              </g>
              <g id="XMLID_507_" transform="translate(102.225 0.031)">
                <g id="XMLID_508_">
                  <path id="XMLID_509_" d="M670.578,161.712a3.4,3.4,0,0,1-1.056,2.548,3.52,3.52,0,0,1-2.548,1.056,3.381,3.381,0,0,1-2.517-1.056,3.52,3.52,0,0,1-1.056-2.548V114.2a3.4,3.4,0,0,1,1.056-2.548,3.449,3.449,0,0,1,2.517-1.056,3.381,3.381,0,0,1,2.517,1.056,3.678,3.678,0,0,1,1.088,2.548v16.41a17.73,17.73,0,0,1,17.493-2.113,18.683,18.683,0,0,1,5.686,3.822A17.624,17.624,0,0,1,697.641,138a17.019,17.019,0,0,1,1.429,6.96v16.778a3.548,3.548,0,0,1-1.087,2.548,3.449,3.449,0,0,1-2.517,1.056,3.381,3.381,0,0,1-2.517-1.056,3.52,3.52,0,0,1-1.056-2.548V144.965a9.864,9.864,0,0,0-.87-4.132,11.251,11.251,0,0,0-2.3-3.387,11.074,11.074,0,0,0-3.387-2.3,10.5,10.5,0,0,0-8.3-.031,11.075,11.075,0,0,0-3.387,2.3,10.683,10.683,0,0,0-2.3,3.418,10.344,10.344,0,0,0-.839,4.132v16.747Z" transform="translate(-663.4 -110.6)" fill="#fff"/>
                </g>
              </g>
              <g id="XMLID_502_" transform="translate(141.53 16.437)">
                <g id="XMLID_503_">
                  <path id="XMLID_504_" d="M823.923,194.751q-6.9,6.944-14.883,6.929a19.159,19.159,0,1,1,19.14-19.14v17.027a2.122,2.122,0,0,1-2.113,2.113,2.164,2.164,0,0,1-1.522-.621,1.927,1.927,0,0,1-.621-1.491Zm-14.852-27.094a14.9,14.9,0,1,0,10.533,4.381,14.362,14.362,0,0,0-10.533-4.381Z" transform="translate(-789.9 -163.4)" fill="#fff"/>
                </g>
              </g>
              <g id="XMLID_498_" transform="translate(183.725 0.031)">
                <g id="XMLID_499_">
                  <path id="XMLID_500_" d="M947.636,110.6a2.122,2.122,0,0,1,2.113,2.113,2.165,2.165,0,0,1-.621,1.522,1.928,1.928,0,0,1-1.491.621q-12.071,0-12.056,12.025v2.237h9.259a2.122,2.122,0,0,1,2.113,2.113,2.165,2.165,0,0,1-.621,1.522,1.928,1.928,0,0,1-1.491.621h-9.259V163.14a2.122,2.122,0,0,1-2.113,2.113,2.165,2.165,0,0,1-1.522-.621,1.928,1.928,0,0,1-.621-1.491V133.406h-3.511a2.041,2.041,0,0,1-1.491-.621,2.131,2.131,0,0,1,1.492-3.635h3.511v-2.237C931.293,116.037,936.761,110.6,947.636,110.6Z" transform="translate(-925.7 -110.6)" fill="#fff"/>
                </g>
              </g>
              <g id="XMLID_494_" transform="translate(209.327 0.031)">
                <g id="XMLID_495_">
                  <path id="XMLID_496_" d="M1030.04,110.6a2.122,2.122,0,0,1,2.113,2.113,2.163,2.163,0,0,1-.621,1.522,1.928,1.928,0,0,1-1.491.621q-12.071,0-12.056,12.025v2.237h9.259a2.122,2.122,0,0,1,2.113,2.113,2.163,2.163,0,0,1-.621,1.522,1.927,1.927,0,0,1-1.491.621h-9.259V163.14a2.122,2.122,0,0,1-2.113,2.113,2.165,2.165,0,0,1-1.523-.621,1.928,1.928,0,0,1-.621-1.491V133.406h-3.511a2.04,2.04,0,0,1-1.491-.621,2.131,2.131,0,0,1,1.492-3.635h3.511v-2.237C1013.69,116.037,1019.16,110.6,1030.04,110.6Z" transform="translate(-1008.1 -110.6)" fill="#fff"/>
                </g>
              </g>
              <g id="XMLID_489_" transform="translate(237.136 4.381)">
                <g id="XMLID_490_">
                  <path id="XMLID_491_" d="M1103.26,127.427a2.816,2.816,0,0,1-.808,2.02,2.694,2.694,0,0,1-2.02.808,2.8,2.8,0,0,1-1.989-.808,2.672,2.672,0,0,1-.839-2.02,2.828,2.828,0,1,1,5.656,0Zm-4.971,11.372a2.122,2.122,0,0,1,2.113-2.113,2.164,2.164,0,0,1,1.522.621,1.927,1.927,0,0,1,.622,1.491v34.054a2.041,2.041,0,0,1-.622,1.491,2.131,2.131,0,0,1-3.635-1.492Z" transform="translate(-1097.6 -124.6)" fill="#fff"/>
                </g>
              </g>
              <g id="XMLID_485_" transform="translate(249.409 16.437)">
                <g id="XMLID_486_">
                  <path id="XMLID_487_" d="M1137.13,165.544a2.113,2.113,0,0,1,4.226,0v3.946q6.292-6.1,13.454-6.09a17.769,17.769,0,0,1,17.742,17.742v18.425a2.04,2.04,0,0,1-.621,1.491,2.132,2.132,0,0,1-3.636-1.492V181.142a13.485,13.485,0,1,0-26.97,0v18.425a2.113,2.113,0,0,1-4.226,0V165.544Z" transform="translate(-1137.1 -163.4)" fill="#fff"/>
                </g>
              </g>
              <g id="XMLID_480_" transform="translate(291.045 4.381)">
                <g id="XMLID_481_">
                  <path id="XMLID_482_" d="M1276.76,127.427a2.816,2.816,0,0,1-.808,2.02,2.694,2.694,0,0,1-2.02.808,2.8,2.8,0,0,1-1.989-.808,2.672,2.672,0,0,1-.839-2.02,2.828,2.828,0,0,1,5.655,0Zm-4.94,11.372a2.122,2.122,0,0,1,2.113-2.113,2.164,2.164,0,0,1,1.522.621,1.928,1.928,0,0,1,.621,1.491v34.054a2.041,2.041,0,0,1-.621,1.491,2.131,2.131,0,0,1-3.635-1.492Z" transform="translate(-1271.1 -124.6)" fill="#fff"/>
                </g>
              </g>
              <g id="XMLID_476_" transform="translate(303.473 0.031)">
                <g id="XMLID_477_">
                  <path id="XMLID_478_" d="M1330.24,161.06a2.164,2.164,0,0,1,1.522.621,1.927,1.927,0,0,1,.622,1.491,2.039,2.039,0,0,1-.622,1.491,2.111,2.111,0,0,1-1.522.621q-13.469,0-13.454-13.454V131.262h-3.542a2.164,2.164,0,0,1-1.523-.621,1.929,1.929,0,0,1-.621-1.491,2.041,2.041,0,0,1,.621-1.491,2.164,2.164,0,0,1,1.523-.621h3.511V112.713a2.122,2.122,0,0,1,2.113-2.113,2.165,2.165,0,0,1,1.523.621,1.928,1.928,0,0,1,.621,1.491v14.324h6.4a2.164,2.164,0,0,1,1.522.621,1.927,1.927,0,0,1,.622,1.491,2.04,2.04,0,0,1-.622,1.491,2.164,2.164,0,0,1-1.522.621h-6.4v20.569Q1321.06,161.06,1330.24,161.06Z" transform="translate(-1311.1 -110.6)" fill="#fff"/>
                </g>
              </g>
              <g id="XMLID_472_" transform="translate(328.983 16.437)">
                <g id="XMLID_473_">
                  <path id="XMLID_474_" d="M1407.18,199.536l-13.858-33.153a2.94,2.94,0,0,1-.124-.87,2.041,2.041,0,0,1,.621-1.491,2.111,2.111,0,0,1,1.522-.621,2.041,2.041,0,0,1,1.491.621,2.6,2.6,0,0,1,.528.87l12.149,29.052,12.149-29.052a2.4,2.4,0,0,1,.59-.932,1.991,1.991,0,0,1,1.46-.559,2.041,2.041,0,0,1,1.491.621,2.2,2.2,0,0,1,.652,1.491,2.332,2.332,0,0,1-.124.746l-21.1,50.429a2.348,2.348,0,0,1-.466.777,2.089,2.089,0,0,1-1.554.652,1.991,1.991,0,0,1-1.492-.621,2.04,2.04,0,0,1-.615-1.5,1.7,1.7,0,0,1,.124-.746Z" transform="translate(-1393.2 -163.4)" fill="#fff"/>
                </g>
              </g>
            </g>
          </g>
          <g id="XMLID_2_">
            <path id="XMLID_5_" d="M127.654,75.7H117.4v7.923h7.364a29.883,29.883,0,0,1,29.891,29.891v.031a29.9,29.9,0,0,1-29.891,29.891H117.4v7.923h10.254a34.915,34.915,0,0,0,34.924-34.924v-5.81A34.955,34.955,0,0,0,127.654,75.7Z" transform="translate(-81.295 -52.8)" fill="#fff"/>
            <path id="XMLID_4_" d="M18.2,111.587V75.7H41.628L29.386,88.1Z" transform="translate(-12.918 -52.8)" fill="#a3258c"/>
            <path id="XMLID_3_" d="M14.4,52.9A20.026,20.026,0,0,1,31.992,33.009V24.931h-.4c-.311,0-.59.031-.9.031v-.031H20.557A54.674,54.674,0,0,0,21.4,18.9C21.831,7.189,18.755,2,17.45,2a1.918,1.918,0,0,0-1.989,1.243s-.621,6.836-2.61,11A29.637,29.637,0,0,1,4.866,24.9h-3.2a.478.478,0,0,0-.466.466v6.991a.478.478,0,0,0,.466.466H6.482V50.005h0v25.6a24.95,24.95,0,0,0,24.95,24.95h.528V92.48A19.911,19.911,0,0,1,14.374,72.687V52.9Z" transform="translate(-1.2 -2)" fill="#ef5a2a"/>
            <g id="XMLID_22_" transform="translate(73.359 57.109)">
              <g id="XMLID_92_">
                <g id="XMLID_96_">
                  <path id="XMLID_97_" d="M241.65,185.8h-.777c-1.957,0-3.573,1.056-3.573,2.361V223.3a3.952,3.952,0,0,0,3.946,3.946h0a3.952,3.952,0,0,0,3.946-3.946V188.161C245.223,186.856,243.639,185.8,241.65,185.8Z" transform="translate(-237.3 -185.8)" fill="#fff"/>
                </g>
              </g>
            </g>
            <path id="XMLID_16_" d="M111.464,181.881,100.9,178.09l10.222-3.045L121.314,172l-3.045,10.191-3.045,10.222Z" transform="translate(-69.922 -119.179)" fill="#ef5a2a"/>
          </g>
        </g>
      </g>
    </g>
  </g>
</svg>
