<svg xmlns="http://www.w3.org/2000/svg" xmlns:xlink="http://www.w3.org/1999/xlink" width="158" height="89" viewBox="0 0 158 89">
  <defs>
    <clipPath id="clip-TechAffinity_Blog_Logo">
      <rect width="158" height="89"/>
    </clipPath>
  </defs>
  <g id="TechAffinity_Blog_Logo" data-name="TechAffinity Blog Logo" clip-path="url(#clip-TechAffinity_Blog_Logo)">
    <g id="Group_1105" data-name="Group 1105" transform="translate(0 -38)">
      <path id="Union_2" data-name="Union 2" d="M25.881,83.512l-.006-11.28H14.587A14.587,14.587,0,0,1,0,57.645V14.587A14.587,14.587,0,0,1,14.587,0h127.16a14.587,14.587,0,0,1,14.587,14.587V57.646a14.587,14.587,0,0,1-14.587,14.587h-83.2L32.445,87.3a4.367,4.367,0,0,1-6.564-3.788Z" transform="translate(0.746 38.983)" fill="#ef5a2a"/>
      <g id="Group_1" data-name="Group 1" transform="translate(28.436 52.446)">
        <path id="Path_1" data-name="Path 1" d="M328.945,372.106a13.275,13.275,0,0,1,5.044-4.985,13.647,13.647,0,0,1,17.4,20.379l2.412,2.13c1.173,1.036.343,2.805-1.313,2.805l-9.706.137c-1.032.027-1.255,0-1.905,0a13.743,13.743,0,0,1-6.941-1.8,13.165,13.165,0,0,1-4.973-5,13.628,13.628,0,0,1-1.823-6.87,13.4,13.4,0,0,1,1.813-6.8m6.777,12.284a6.747,6.747,0,0,0,5.089,2.122,7.79,7.79,0,0,0,1.616-.168,6.491,6.491,0,0,0,3.438-1.931,6.9,6.9,0,0,0,.826-1.061,8.083,8.083,0,0,0,1.167-4.425,7.5,7.5,0,0,0-2.019-5.4,7.189,7.189,0,0,0-10.154-.024,8.369,8.369,0,0,0,.036,10.889" transform="translate(-284.371 -352.667)" fill="#fff"/>
        <path id="Path_2" data-name="Path 2" d="M254.888,353.547a11.329,11.329,0,0,0-8.634-3.84,11,11,0,0,0-4.389.883,12.249,12.249,0,0,0-3.817,2.648V340.354a3.233,3.233,0,0,0-6.467,0v34.629h0v.026a3.233,3.233,0,1,0,6.467,0v-1.431a12.718,12.718,0,0,0,3.841,2.611,10.812,10.812,0,0,0,4.173.8,11.569,11.569,0,0,0,8.706-3.9,13.6,13.6,0,0,0,3.674-9.7,13.931,13.931,0,0,0-3.554-9.851m-4.973,15.317a6.617,6.617,0,0,1-5.021,2.171,6.741,6.741,0,0,1-5.106-2.135,7.787,7.787,0,0,1-2.028-5.594,7.565,7.565,0,0,1,2.028-5.486,6.8,6.8,0,0,1,5.106-2.1,6.637,6.637,0,0,1,5.057,2.135,7.68,7.68,0,0,1,2,5.474,7.759,7.759,0,0,1-2.042,5.534" transform="translate(-231.581 -337.121)" fill="#fff"/>
        <path id="Path_3" data-name="Path 3" d="M305.406,337.5a3.256,3.256,0,0,0-3.256,3.256v34.438a3.256,3.256,0,1,0,6.512,0V340.755a3.256,3.256,0,0,0-3.256-3.256" transform="translate(-270.615 -337.329)" fill="#fff"/>
        <path id="Union_1" data-name="Union 1" d="M7.01,38.4a11.54,11.54,0,0,1-4.387-2.8,10.816,10.816,0,0,1-.982-1.178c-.053-.073-.106-.146-.157-.219a3.23,3.23,0,0,1-.232-3.1h5.9l.015.015A5.944,5.944,0,0,0,9.61,32.761a10.178,10.178,0,0,0,3.554.56,9.378,9.378,0,0,0,4.222-.811,4.9,4.9,0,0,0,2.254-2.1,10.624,10.624,0,0,0,.656-4.437,10.79,10.79,0,0,1-3.6,2.47,11.451,11.451,0,0,1-4.27.751A11.733,11.733,0,0,1,3.6,25.427,13.251,13.251,0,0,1,0,15.885,13.263,13.263,0,0,1,3.814,5.965a11.388,11.388,0,0,1,8.253-3.391A10.98,10.98,0,0,1,16.3,3.4a13.427,13.427,0,0,1,4,2.707V3.243a3.246,3.246,0,1,1,6.491,0h0v22.23q0,6.583-2.648,9.685-3.555,4.2-10.709,4.2A18.761,18.761,0,0,1,7.01,38.4Zm1.455-27.68a7.148,7.148,0,0,0-2,5.188,7.245,7.245,0,0,0,2.052,5.315A6.944,6.944,0,0,0,13.665,23.3a6.666,6.666,0,0,0,5-2.028,7.313,7.313,0,0,0,1.969-5.319,7.227,7.227,0,0,0-1.979-5.272,6.825,6.825,0,0,0-5.106-2.028,6.783,6.783,0,0,0-5.081,2.068ZM7.152,31.1h-5.9a3.242,3.242,0,0,1,5.917.015c-.005-.007-.01-.01-.015-.015Z" transform="translate(74.114 10.011)" fill="#fff" stroke="rgba(0,0,0,0)" stroke-miterlimit="10" stroke-width="1"/>
        <path id="Path_7" data-name="Path 7" d="M100.623,168.127l-3.5-1.256,3.387-1.009,3.377-1.009-1.009,3.377-1.009,3.387Z" transform="translate(-44.787 -141.343)" fill="#fff"/>
      </g>
    </g>
  </g>
</svg>

